<?xml version="1.0" encoding="UTF-8" standalone="no"?>
<svg
   xmlns:dc="http://purl.org/dc/elements/1.1/"
   xmlns:cc="http://creativecommons.org/ns#"
   xmlns:rdf="http://www.w3.org/1999/02/22-rdf-syntax-ns#"
   xmlns:svg="http://www.w3.org/2000/svg"
   xmlns="http://www.w3.org/2000/svg"
   xmlns:xlink="http://www.w3.org/1999/xlink"
   xmlns:sodipodi="http://sodipodi.sourceforge.net/DTD/sodipodi-0.dtd"
   xmlns:inkscape="http://www.inkscape.org/namespaces/inkscape"
   width="1000.476"
   height="468.27087"
   viewBox="0 0 1000.4758 468.27086"
   version="1.1"
   id="svg620"
   sodipodi:docname="Header-Image.svg"
   inkscape:version="0.92.4 (5da689c313, 2019-01-14)">
  <metadata
     id="metadata624">
    <rdf:RDF>
      <cc:Work
         rdf:about="">
        <dc:format>image/svg+xml</dc:format>
        <dc:type
           rdf:resource="http://purl.org/dc/dcmitype/StillImage" />
        <dc:title></dc:title>
      </cc:Work>
    </rdf:RDF>
  </metadata>
  <sodipodi:namedview
     pagecolor="#ffffff"
     bordercolor="#666666"
     borderopacity="1"
     objecttolerance="10"
     gridtolerance="10"
     guidetolerance="10"
     inkscape:pageopacity="0"
     inkscape:pageshadow="2"
     inkscape:window-width="1920"
     inkscape:window-height="1017"
     id="namedview622"
     showgrid="false"
     fit-margin-top="0"
     fit-margin-left="0"
     fit-margin-right="0"
     fit-margin-bottom="0"
     inkscape:zoom="1.0099432"
     inkscape:cx="386.96876"
     inkscape:cy="239.87616"
     inkscape:window-x="1912"
     inkscape:window-y="-8"
     inkscape:window-maximized="1"
     inkscape:current-layer="svg620" />
  <defs
     id="defs354">
    <style
       id="style318">.a{fill:none;}.b{fill:#e8ecf7;}.c{fill:url(#a);}.d{fill:#007aff;}.e{fill:#fff;}.f{fill:#bab6b0;}.g{fill:#85bdda;}.h{fill:url(#b);}.i{fill:#c2ddec;}.j{fill:#99cae1;}.k{fill:#afc9cf;}.as,.k{opacity:0.5;}.ae,.k{mix-blend-mode:multiply;isolation:isolate;}.l{clip-path:url(#f);}.m{fill:#fbb5b8;}.n{fill:#10312f;}.o{fill:#fcbac3;}.p{fill:#f6538b;}.q{fill:#fc8609;}.r{fill:#f5144f;}.s{fill:#f95e01;}.t{fill:#3772ce;}.u{fill:#f4bdbd;}.v{fill:#110967;}.w{fill:#ff928e;}.x{fill:#275bca;}.y{fill:url(#g);}.z{fill:#0f3872;}.aa{fill:#b9ddff;}.ab{fill:#f7f7f7;}.ac{fill:#4baafc;}.ad{fill:#ec1c24;}.af,.ag,.ah,.ai,.aj,.ak,.al,.am,.an,.ao,.ap,.aq,.ar,.as,.at,.au,.av,.aw,.ax,.ay,.az,.ba,.bb,.bc,.bd,.be,.bf{fill:#9b9fa3;}.af{opacity:0;}.ag{opacity:0.038;}.ah{opacity:0.077;}.ai{opacity:0.115;}.aj{opacity:0.154;}.ak{opacity:0.192;}.al{opacity:0.231;}.am{opacity:0.269;}.an{opacity:0.308;}.ao{opacity:0.346;}.ap{opacity:0.385;}.aq{opacity:0.423;}.ar{opacity:0.462;}.at{opacity:0.538;}.au{opacity:0.577;}.av{opacity:0.615;}.aw{opacity:0.654;}.ax{opacity:0.692;}.ay{opacity:0.731;}.az{opacity:0.769;}.ba{opacity:0.808;}.bb{opacity:0.846;}.bc{opacity:0.885;}.bd{opacity:0.923;}.be{opacity:0.962;}.bg{fill:#7ab0f6;}.bh{opacity:0.33;}.bi,.bj{stroke:#000;stroke-miterlimit:10;}.bi{stroke-width:0.603px;}.bj{stroke-linecap:round;stroke-width:1.205px;}</style>
    <linearGradient
       id="a"
       x1="986.8504"
       y1="1012.7206"
       x2="1088.3376"
       y2="448.51978"
       gradientUnits="userSpaceOnUse"
       gradientTransform="scale(1.2967284,0.77117153)">
      <stop
         offset="0"
         stop-color="#bad4f5"
         stop-opacity="0.302"
         id="stop320" />
      <stop
         offset="0.116"
         stop-color="#c7dcf7"
         stop-opacity="0.443"
         id="stop322" />
      <stop
         offset="0.272"
         stop-color="#d8e7f9"
         stop-opacity="0.612"
         id="stop324" />
      <stop
         offset="0.429"
         stop-color="#e6effb"
         stop-opacity="0.749"
         id="stop326" />
      <stop
         offset="0.582"
         stop-color="#f1f6fc"
         stop-opacity="0.859"
         id="stop328" />
      <stop
         offset="0.73"
         stop-color="#f8fbfe"
         stop-opacity="0.937"
         id="stop330" />
      <stop
         offset="0.872"
         stop-color="#fdfefe"
         stop-opacity="0.984"
         id="stop332" />
      <stop
         offset="1"
         stop-color="#fff"
         id="stop334" />
    </linearGradient>
    <linearGradient
       id="b"
       y1="0.5"
       x2="1"
       y2="0.5"
       gradientUnits="objectBoundingBox">
      <stop
         offset="0"
         stop-color="#0464ba"
         id="stop337" />
      <stop
         offset="0.173"
         stop-color="#0e58b0"
         id="stop339" />
      <stop
         offset="0.699"
         stop-color="#293b98"
         id="stop341" />
      <stop
         offset="1"
         stop-color="#34318f"
         id="stop343" />
    </linearGradient>
    <clipPath
       id="f">
      <rect
         class="a"
         width="598.08301"
         height="426.05499"
         transform="translate(957.435,157.633)"
         id="rect346"
         x="0"
         y="0"
         style="fill:none" />
    </clipPath>
    <linearGradient
       id="g"
       y1="0.5"
       x2="1"
       y2="0.5"
       gradientUnits="objectBoundingBox">
      <stop
         offset="0"
         stop-color="#e1473d"
         id="stop349" />
      <stop
         offset="1"
         stop-color="#e9605a"
         id="stop351" />
    </linearGradient>
    <linearGradient
       inkscape:collect="always"
       xlink:href="#b"
       id="linearGradient626"
       gradientUnits="userSpaceOnUse"
       y1="607.77557"
       x2="1111.4672"
       y2="607.77557"
       gradientTransform="scale(1.1859162,0.84322987)"
       x1="865.69434" />
    <linearGradient
       inkscape:collect="always"
       xlink:href="#b"
       id="linearGradient628"
       gradientUnits="userSpaceOnUse"
       y1="17.731779"
       x2="35.463558"
       y2="17.731779"
       gradientTransform="scale(4.1231904,0.24253064)"
       x1="0" />
    <linearGradient
       inkscape:collect="always"
       xlink:href="#b"
       id="linearGradient630"
       gradientUnits="userSpaceOnUse"
       y1="607.77454"
       x2="1376.7177"
       y2="607.77454"
       gradientTransform="scale(1.1859142,0.84323132)"
       x1="1130.9452" />
    <linearGradient
       inkscape:collect="always"
       xlink:href="#b"
       id="linearGradient632"
       gradientUnits="userSpaceOnUse"
       y1="17.731779"
       x2="35.463558"
       y2="17.731779"
       gradientTransform="scale(4.1231904,0.24253064)"
       x1="0" />
    <linearGradient
       inkscape:collect="always"
       xlink:href="#g"
       id="linearGradient634"
       gradientUnits="userSpaceOnUse"
       y1="422.36151"
       x2="1621.2751"
       y2="422.36151"
       gradientTransform="scale(0.86751438,1.1527186)"
       x1="1503.3088" />
    <linearGradient
       inkscape:collect="always"
       xlink:href="#g"
       id="linearGradient636"
       gradientUnits="userSpaceOnUse"
       y1="235.68788"
       x2="3402.136"
       y2="235.68788"
       gradientTransform="scale(0.45823035,2.1823085)"
       x1="3301.5229" />
  </defs>
  <g
     transform="translate(-861.78002,-283.085)"
     id="g618">
    <g
       transform="translate(-0.176)"
       id="g396">
      <ellipse
         class="b"
         cx="13.863"
         cy="8.0030003"
         rx="13.863"
         ry="8.0030003"
         transform="translate(1591.724,362.232)"
         id="ellipse356"
         style="fill:#e8ecf7" />
      <path
         class="b"
         d="m 1643.749,403.584 c 5.412,3.125 14.189,3.125 19.6,0 5.411,-3.125 5.415,-8.194 0,-11.319 -5.415,-3.125 -14.19,-3.125 -19.6,0 -5.41,3.125 -5.413,8.194 0,11.319 z"
         id="path358"
         inkscape:connector-curvature="0"
         style="fill:#e8ecf7" />
      <path
         class="b"
         d="m 1691.713,431.274 c 5.412,3.125 14.189,3.125 19.6,0 5.411,-3.125 5.412,-8.191 0,-11.316 -5.412,-3.125 -14.19,-3.125 -19.6,0 -5.41,3.125 -5.413,8.191 0,11.316 z"
         id="path360"
         inkscape:connector-curvature="0"
         style="fill:#e8ecf7" />
      <path
         class="b"
         d="m 1759.279,447.646 c -5.415,-3.125 -14.19,-3.125 -19.605,0 -5.415,3.125 -5.412,8.194 0,11.319 5.412,3.125 14.19,3.125 19.605,0 5.415,-3.125 5.412,-8.194 0,-11.319 z"
         id="path362"
         inkscape:connector-curvature="0"
         style="fill:#e8ecf7" />
      <path
         class="b"
         d="m 1547.824,403.584 c 5.412,3.125 14.189,3.125 19.6,0 5.411,-3.125 5.415,-8.194 0,-11.319 -5.415,-3.125 -14.19,-3.125 -19.6,0 -5.41,3.125 -5.413,8.194 0,11.319 z"
         id="path364"
         inkscape:connector-curvature="0"
         style="fill:#e8ecf7" />
      <path
         class="b"
         d="m 1595.785,431.274 c 5.415,3.125 14.192,3.125 19.6,0 5.408,-3.125 5.413,-8.191 0,-11.316 -5.413,-3.125 -14.189,-3.125 -19.6,0 -5.411,3.125 -5.413,8.191 0,11.316 z"
         id="path366"
         inkscape:connector-curvature="0"
         style="fill:#e8ecf7" />
      <path
         class="b"
         d="m 1643.749,458.965 c 5.415,3.125 14.189,3.125 19.6,0 5.411,-3.125 5.413,-8.194 0,-11.319 -5.413,-3.125 -14.187,-3.125 -19.6,0 -5.413,3.125 -5.413,8.194 0,11.319 z"
         id="path368"
         inkscape:connector-curvature="0"
         style="fill:#e8ecf7" />
      <path
         class="b"
         d="m 1711.315,475.344 c -5.413,-3.125 -14.19,-3.132 -19.6,0 -5.41,3.132 -5.413,8.188 0,11.313 5.413,3.125 14.189,3.125 19.6,0 5.411,-3.125 5.412,-8.188 0,-11.313 z"
         id="path370"
         inkscape:connector-curvature="0"
         style="fill:#e8ecf7" />
      <path
         class="b"
         d="m 1499.86,431.274 c 5.415,3.125 14.192,3.125 19.6,0 5.408,-3.125 5.413,-8.191 0,-11.316 -5.413,-3.125 -14.189,-3.125 -19.6,0 -5.411,3.125 -5.413,8.191 0,11.316 z"
         id="path372"
         inkscape:connector-curvature="0"
         style="fill:#e8ecf7" />
      <path
         class="b"
         d="m 1547.824,458.965 c 5.412,3.125 14.189,3.125 19.6,0 5.411,-3.125 5.415,-8.194 0,-11.319 -5.415,-3.125 -14.19,-3.125 -19.6,0 -5.41,3.125 -5.413,8.194 0,11.319 z"
         id="path374"
         inkscape:connector-curvature="0"
         style="fill:#e8ecf7" />
      <path
         class="b"
         d="m 1595.787,486.657 c 5.413,3.125 14.19,3.125 19.6,0 5.41,-3.125 5.413,-8.188 0,-11.313 -5.413,-3.125 -14.189,-3.132 -19.6,0 -5.411,3.132 -5.415,8.188 0,11.313 z"
         id="path376"
         inkscape:connector-curvature="0"
         style="fill:#e8ecf7" />
      <ellipse
         class="b"
         cx="13.863"
         cy="8.0030003"
         rx="13.863"
         ry="8.0030003"
         transform="translate(1639.688,500.688)"
         id="ellipse378"
         style="fill:#e8ecf7" />
      <ellipse
         class="b"
         cx="13.861"
         cy="8.0030003"
         rx="13.861"
         ry="8.0030003"
         transform="translate(1447.838,445.302)"
         id="ellipse380"
         style="fill:#e8ecf7" />
      <path
         class="b"
         d="m 1499.862,486.657 c 5.413,3.125 14.19,3.125 19.6,0 5.41,-3.125 5.413,-8.188 0,-11.32 -5.413,-3.132 -14.189,-3.125 -19.6,0 -5.411,3.125 -5.415,8.195 0,11.32 z"
         id="path382"
         inkscape:connector-curvature="0"
         style="fill:#e8ecf7" />
      <path
         class="b"
         d="m 1547.824,514.35 c 5.412,3.125 14.189,3.125 19.6,0 5.411,-3.125 5.415,-8.193 0,-11.318 -5.415,-3.125 -14.19,-3.125 -19.6,0 -5.41,3.125 -5.413,8.188 0,11.318 z"
         id="path384"
         inkscape:connector-curvature="0"
         style="fill:#e8ecf7" />
      <ellipse
         class="b"
         cx="13.862"
         cy="8.0039997"
         rx="13.862"
         ry="8.0039997"
         transform="translate(1591.727,528.378)"
         id="ellipse386"
         style="fill:#e8ecf7" />
      <path
         class="b"
         d="m 1423.539,475.337 c -5.415,-3.125 -14.19,-3.125 -19.6,0 -5.41,3.125 -5.412,8.2 0,11.32 5.412,3.12 14.19,3.125 19.6,0 5.41,-3.125 5.413,-8.188 0,-11.32 z"
         id="path388"
         inkscape:connector-curvature="0"
         style="fill:#e8ecf7" />
      <path
         class="b"
         d="m 1471.5,503.032 c -5.412,-3.125 -14.189,-3.125 -19.6,0 -5.411,3.125 -5.412,8.188 0,11.318 5.412,3.13 14.19,3.125 19.6,0 5.41,-3.125 5.415,-8.193 0,-11.318 z"
         id="path390"
         inkscape:connector-curvature="0"
         style="fill:#e8ecf7" />
      <path
         class="b"
         d="m 1519.464,530.722 c -5.412,-3.125 -14.189,-3.125 -19.6,0 -5.411,3.125 -5.415,8.2 0,11.321 5.415,3.121 14.19,3.125 19.6,0 5.41,-3.125 5.413,-8.196 0,-11.321 z"
         id="path392"
         inkscape:connector-curvature="0"
         style="fill:#e8ecf7" />
      <path
         class="b"
         d="m 1567.426,558.413 c -5.413,-3.125 -14.19,-3.125 -19.6,0 -5.41,3.125 -5.413,8.193 0,11.318 5.413,3.125 14.189,3.125 19.6,0 5.411,-3.125 5.415,-8.193 0,-11.318 z"
         id="path394"
         inkscape:connector-curvature="0"
         style="fill:#e8ecf7" />
    </g>
    <g
       transform="translate(-0.176)"
       id="g616">
      <path
         class="c"
         d="m 1170.8,747.154 c 121.875,21.806 203.211,-48.77 349.33,-40.447 237.1,13.505 251.307,-219.318 80.273,-253.046 -275.237,-54.276 -281.538,-127.922 -385.208,-143.088 -85.548,-12.515 -85.334,62.646 -123.862,104.378 -57.093,61.841 -121.894,73.138 -119.4,151.655 2.748,86.718 69.657,157.43 198.867,180.548 z"
         id="path398"
         style="fill:url(#a)"
         inkscape:connector-curvature="0" />
      <path
         class="d"
         d="m 1357.382,377.921 c -2.934,-3.363 -5.96,-6.646 -8.927,-9.981 -1.055,-1.185 -1.95,-2.513 -3.842,-2.454 -2.088,0.065 -4.183,-0.081 -6.271,-0.013 -2.933,0.1 -5.863,-0.029 -8.8,0.083 -5.772,0.22 -11.563,-0.1 -17.346,-0.079 -6.541,0.024 -13.082,0.244 -19.623,0.253 -5.849,0.008 -11.7,-0.171 -17.548,-0.227 -1.3,-0.013 -1.853,-0.493 -1.858,-1.838 -0.01,-2.043 -0.26,-4.084 -0.268,-6.126 -0.039,-11.138 -0.01,-22.276 -0.078,-33.413 a 1.775,1.775 0 0 1 1.962,-2.03 c 4.393,-0.133 8.79,-0.208 13.185,-0.2 4.228,0.008 8.464,0.34 12.684,0.188 7.677,-0.275 15.341,-0.963 23.018,-1.182 8.2,-0.235 16.408,-0.113 24.613,-0.174 5.213,-0.039 10.426,-0.138 15.639,-0.19 3.72,-0.037 7.44,-0.045 11.159,-0.058 2.152,-0.008 4.3,0 6.649,0 0,3.3 0.012,6.112 0,8.924 -0.019,3.677 -0.149,7.357 -0.061,11.031 0.086,3.554 -0.519,7.057 -0.436,10.626 0.086,3.7 -0.7,7.416 -0.809,11.133 -0.052,1.775 -0.589,2.337 -2.261,2.246 -1.014,-0.055 -2.041,0.194 -3.063,0.2 -3.253,0.03 -6.506,0.011 -10,0.011 0.636,8.062 1.286,16.305 1.937,24.567 -3.265,-3.823 -6.422,-7.593 -9.655,-11.297 z"
         id="path400"
         inkscape:connector-curvature="0"
         style="fill:#007aff" />
      <circle
         class="e"
         cx="8.2639999"
         cy="8.2639999"
         r="8.2639999"
         transform="translate(1289.181,333.652)"
         id="circle402"
         style="fill:#ffffff" />
      <circle
         class="e"
         cx="8.2639999"
         cy="8.2639999"
         r="8.2639999"
         transform="rotate(-22.5,1506.4593,-3140.4694)"
         id="circle404"
         style="fill:#ffffff" />
      <circle
         class="e"
         cx="8.2639999"
         cy="8.2639999"
         r="8.2639999"
         transform="rotate(-22.5,1521.3748,-3215.4547)"
         id="circle406"
         style="fill:#ffffff" />
      <path
         class="f"
         d="M 1320.943,430.972 V 595.91 c 0,12.493 -10.978,23.043 -23.98,23.043 h -249.178 c -13,0 -23.98,-10.55 -23.98,-23.043 V 430.972 c 0,-13.98 10.537,-24.93 23.98,-24.93 h 249.178 c 13.443,0 23.98,10.95 23.98,24.93 z"
         id="path408"
         inkscape:connector-curvature="0"
         style="fill:#bab6b0" />
      <path
         class="g"
         d="M 1320.943,430.972 V 595.91 c 0,12.493 -10.978,23.043 -23.98,23.043 h -29.822 a 25.47,25.47 0 0 0 3.484,-2.837 23.438,23.438 0 0 0 7.314,-16.762 V 427.611 c 0,-0.565 -0.014,-1.129 -0.055,-1.694 -0.028,-0.455 -0.055,-0.909 -0.11,-1.35 -0.014,-0.193 -0.042,-0.386 -0.069,-0.565 v -0.013 c -0.055,-0.455 -0.124,-0.91 -0.207,-1.35 -0.082,-0.469 -0.179,-0.923 -0.289,-1.378 a 2.216,2.216 0 0 0 -0.069,-0.289 c -0.11,-0.454 -0.22,-0.895 -0.372,-1.336 a 0.571,0.571 0 0 0 -0.055,-0.207 c -0.11,-0.371 -0.234,-0.73 -0.372,-1.088 a 25.42,25.42 0 0 0 -5.922,-9.462 23.727,23.727 0 0 0 -3.375,-2.837 h 29.919 c 13.443,0 23.98,10.95 23.98,24.93 z"
         id="path410"
         inkscape:connector-curvature="0"
         style="fill:#85bdda" />
      <path
         class="h"
         d="m 1318.107,430.973 v 164.943 c 0,10.712 -9.492,20.2 -21.15,20.2 h -249.166 c -11.658,0 -21.15,-9.492 -21.15,-20.2 V 430.973 c 0,-12.6 9.492,-22.1 21.15,-22.1 h 249.166 c 11.658,0.004 21.15,9.495 21.15,22.1 z"
         id="path412"
         style="fill:url(#linearGradient626)"
         inkscape:connector-curvature="0" />
      <path
         class="i"
         d="M 1308.638,430.025 V 581.551 H 1036.1 V 430.025 a 11.692,11.692 0 0 1 11.694,-11.682 h 249.162 a 11.682,11.682 0 0 1 11.682,11.682 z"
         id="path414"
         inkscape:connector-curvature="0"
         style="fill:#c2ddec" />
      <path
         class="j"
         d="m 1023.8,590.552 v 5.364 c 0,12.491 10.987,23.043 23.989,23.043 h 249.166 c 13,0 23.989,-10.552 23.989,-23.043 v -5.364 z"
         id="path416"
         inkscape:connector-curvature="0"
         style="fill:#99cae1" />
      <path
         class="g"
         d="m 1286.746,590.552 v 8.8 a 23.924,23.924 0 0 1 -10.8,19.6 h 21.009 c 13,0 23.989,-10.552 23.989,-23.043 v -5.364 z"
         id="path418"
         inkscape:connector-curvature="0"
         style="fill:#85bdda" />
      <path
         class="j"
         d="m 1223.719,656 v -52.128 h -87.038 V 656 a 71.662,71.662 0 0 1 -28.416,5.657 c 0,1.34 1.6,2.427 3.584,2.427 h 136.7 c 1.979,0 3.584,-1.087 3.584,-2.427 A 71.665,71.665 0 0 1 1223.719,656 Z"
         id="path420"
         inkscape:connector-curvature="0"
         style="fill:#99cae1" />
      <rect
         class="g"
         width="87.780998"
         height="16.712"
         transform="translate(1136.278,619.027)"
         id="rect422"
         x="0"
         y="0"
         style="fill:#85bdda" />
      <rect
         class="h"
         width="146.22301"
         height="8.6009998"
         rx="1.051"
         transform="translate(1105.912,655.48)"
         id="rect424"
         style="fill:url(#linearGradient628)"
         x="0"
         y="0" />
      <path
         class="k"
         d="m 1308.638,430.025 v 151.526 h -21.89 V 427.617 a 27.22,27.22 0 0 0 -1.59,-9.274 h 11.8 a 11.682,11.682 0 0 1 11.68,11.682 z"
         id="path426"
         inkscape:connector-curvature="0"
         style="opacity:0.5;isolation:isolate;mix-blend-mode:multiply;fill:#afc9cf" />
      <path
         class="f"
         d="M 1635.505,430.972 V 595.91 c 0,12.493 -10.978,23.043 -23.98,23.043 h -249.178 c -13,0 -23.979,-10.55 -23.979,-23.043 V 430.972 c 0,-13.98 10.536,-24.93 23.979,-24.93 h 249.178 c 13.443,0 23.98,10.95 23.98,24.93 z"
         id="path428"
         inkscape:connector-curvature="0"
         style="fill:#bab6b0" />
      <path
         class="g"
         d="M 1635.505,430.972 V 595.91 c 0,12.493 -10.978,23.043 -23.98,23.043 H 1581.7 a 25.479,25.479 0 0 0 3.485,-2.837 23.437,23.437 0 0 0 7.313,-16.762 V 427.611 c 0,-0.565 -0.013,-1.129 -0.055,-1.694 -0.027,-0.455 -0.055,-0.909 -0.11,-1.35 -0.014,-0.193 -0.041,-0.386 -0.069,-0.565 v -0.013 c -0.055,-0.455 -0.124,-0.91 -0.206,-1.35 -0.083,-0.469 -0.179,-0.923 -0.29,-1.378 a 2.19,2.19 0 0 0 -0.068,-0.289 c -0.111,-0.454 -0.221,-0.895 -0.372,-1.336 a 0.591,0.591 0 0 0 -0.055,-0.207 c -0.111,-0.371 -0.235,-0.73 -0.372,-1.088 a 25.424,25.424 0 0 0 -5.923,-9.462 23.725,23.725 0 0 0 -3.374,-2.837 h 29.918 c 13.446,0 23.983,10.95 23.983,24.93 z"
         id="path430"
         inkscape:connector-curvature="0"
         style="fill:#85bdda" />
      <path
         class="h"
         d="m 1632.669,430.973 v 164.943 c 0,10.712 -9.491,20.2 -21.15,20.2 h -249.165 c -11.659,0 -21.15,-9.492 -21.15,-20.2 V 430.973 c 0,-12.6 9.491,-22.1 21.15,-22.1 h 249.165 c 11.659,0.004 21.15,9.495 21.15,22.1 z"
         id="path432"
         style="fill:url(#linearGradient630)"
         inkscape:connector-curvature="0" />
      <path
         class="e"
         d="M 1623.2,430.025 V 581.551 H 1350.663 V 430.025 a 11.692,11.692 0 0 1 11.694,-11.682 h 249.161 a 11.682,11.682 0 0 1 11.682,11.682 z"
         id="path434"
         inkscape:connector-curvature="0"
         style="fill:#ffffff" />
      <path
         class="j"
         d="m 1338.365,590.552 v 5.364 c 0,12.491 10.986,23.043 23.989,23.043 h 249.165 c 13,0 23.989,-10.552 23.989,-23.043 v -5.364 z"
         id="path436"
         inkscape:connector-curvature="0"
         style="fill:#99cae1" />
      <path
         class="g"
         d="m 1601.308,590.552 v 8.8 a 23.922,23.922 0 0 1 -10.8,19.6 h 21.009 c 13,0 23.989,-10.552 23.989,-23.043 v -5.364 z"
         id="path438"
         inkscape:connector-curvature="0"
         style="fill:#85bdda" />
      <path
         class="j"
         d="m 1538.282,656 v -52.128 h -87.038 V 656 a 71.665,71.665 0 0 1 -28.416,5.657 c 0,1.34 1.6,2.427 3.584,2.427 h 136.7 c 1.979,0 3.583,-1.087 3.583,-2.427 A 71.661,71.661 0 0 1 1538.282,656 Z"
         id="path440"
         inkscape:connector-curvature="0"
         style="fill:#99cae1" />
      <rect
         class="g"
         width="87.780998"
         height="16.712"
         transform="translate(1450.841,619.027)"
         id="rect442"
         x="0"
         y="0"
         style="fill:#85bdda" />
      <rect
         class="h"
         width="146.22301"
         height="8.6009998"
         rx="1.051"
         transform="translate(1420.475,655.48)"
         id="rect444"
         style="fill:url(#linearGradient632)"
         x="0"
         y="0" />
      <path
         class="k"
         d="m 1623.2,430.025 v 151.526 h -21.889 V 427.617 a 27.217,27.217 0 0 0 -1.59,-9.274 h 11.8 a 11.682,11.682 0 0 1 11.679,11.682 z"
         id="path446"
         inkscape:connector-curvature="0"
         style="opacity:0.5;isolation:isolate;mix-blend-mode:multiply;fill:#afc9cf" />
      <g
         class="l"
         clip-path="url(#f)"
         id="g512">
        <path
           class="m"
           d="m 1212.431,330.568 c 0,2.177 8.706,49.338 -20.316,47.162 l -5.079,26.12 -25.394,-6.53 -0.726,-39.18 c 0,0 -10.883,-10.884 -5.079,-18.139 5.804,-7.255 13.786,-25.4 13.786,-25.4 l 42.808,-1.451 z"
           id="path448"
           inkscape:connector-curvature="0"
           style="fill:#fbb5b8" />
        <path
           class="n"
           d="m 1176.153,345.8 -5.079,4.353 c 0,0 -3.628,-13.06 -8.707,-10.157 -5.079,2.903 -6.53,15.962 5.079,21.041 l -5.079,11.609 -10.158,-14.511 c 0,0 -15.236,-15.237 -8.706,-37.729 l 72.556,-29.748 2.176,29.022 -39.905,1.451 z"
           id="path450"
           inkscape:connector-curvature="0"
           style="fill:#10312f" />
        <path
           class="n"
           d="m 1200.207,320.567 c 0,0 22.978,4.233 25.4,0.605 2.422,-3.628 16.931,-44.142 -11.489,-35.676 -28.42,8.466 -70.477,15.408 -70.612,34.915 -0.135,19.507 26.471,15.878 26.471,15.878 l 15.721,-14.513 z"
           id="path452"
           inkscape:connector-curvature="0"
           style="fill:#10312f" />
        <path
           class="o"
           d="m 1273.393,528.5 13.91,3.66 21.963,-5.857 -0.732,19.035 -8.785,7.321 -1.464,9.517 -11.714,-2.2 -10.25,-0.732 -5.121,-12.444 -4.393,-5.857 z"
           id="path454"
           inkscape:connector-curvature="0"
           style="fill:#fcbac3" />
        <path
           class="p"
           d="m 1201.038,395.97 c 3.393,1.885 29.405,11.309 24.5,47.877 -4.905,36.568 -1.686,130.7 -1.686,130.7 l -11.686,-0.754 c 0,0 -13.771,-160.485 -14.9,-162.747 -1.129,-2.262 -10.176,-18.846 -10.176,-18.846 z"
           id="path456"
           inkscape:connector-curvature="0"
           style="fill:#f6538b" />
        <path
           class="o"
           d="m 1423.474,336.688 c 0,2.2 -8.785,49.783 20.5,47.587 l 5.125,26.356 25.624,-6.589 0.732,-39.534 c 0,0 10.981,-10.981 5.124,-18.3 -5.857,-7.319 -13.91,-25.624 -13.91,-25.624 l -43.194,-1.464 z"
           id="path458"
           inkscape:connector-curvature="0"
           style="fill:#fcbac3" />
        <path
           class="e"
           d="m 1457.151,401.113 20.912,-5.677 14.229,187.238 -49.051,7.326 -0.732,-191.811 z"
           id="path460"
           inkscape:connector-curvature="0"
           style="fill:#ffffff" />
        <path
           class="q"
           d="m 1477.259,395.436 50.127,10.935 3.708,89.915 -1.707,135.439 -43.926,-6.589 z"
           id="path462"
           inkscape:connector-curvature="0"
           style="fill:#fc8609" />
        <path
           class="q"
           d="m 1410.054,622.94 c 2.928,0 36.605,3.661 36.605,3.661 l -4.15,-228.416 c 0,0 -36.6,15.374 -40.266,21.231 -3.666,5.857 -33.676,71.014 -42.462,76.871 -8.786,5.857 -55.639,24.159 -55.639,24.159 l 5.124,34.409 c 0,0 65.158,-21.231 73.943,-29.284 8.785,-8.053 23.427,-38.07 23.427,-38.07 z"
           id="path464"
           inkscape:connector-curvature="0"
           style="fill:#fc8609" />
        <path
           class="o"
           d="m 1537.018,621.005 c 0,0 -13.178,22.7 -6.589,24.16 6.589,1.46 23.428,-1.465 23.428,-5.125 0,-3.66 2.928,-18.3 2.928,-18.3 z"
           id="path466"
           inkscape:connector-curvature="0"
           style="fill:#fcbac3" />
        <path
           class="r"
           d="m 1159.947,386.168 c 0,0 4.632,0.449 10.326,1.42 0.443,0.076 0.894,0.155 1.348,0.237 2.611,0.471 5.617,6.75 8.221,7.438 2.546,0.673 4.965,-1.9 6.634,-3.358 0.174,-0.152 0.415,0.2 0.614,0.3 0.919,0.459 19.49,3.125 22.79,8.735 4.872,8.281 2.559,27.079 4.62,49.5 1.214,13.2 9.274,137.08 9.274,137.08 l -20.2,6.216 -2.794,-41.386 -15.344,3.336 -2.8,43.344 -59.862,-2.963 c 0,0 5.2,-67.468 4.662,-84.69 -0.777,-24.863 0.283,-117.714 0.283,-117.714 z"
           id="path468"
           inkscape:connector-curvature="0"
           style="fill:#f5144f" />
        <path
           class="e"
           d="m 1171.555,387.663 c 0,0 10.142,33.27 11.334,82.72 1.192,49.45 2.722,101.47 2.722,101.47 l 15.631,-3.763 c 0,0 -1.076,-90.558 -3.459,-111.41 -2.383,-20.852 -10.693,-64.48 -10.693,-64.48 0,0 -8.776,0.128 -15.535,-4.537 z"
           id="path470"
           inkscape:connector-curvature="0"
           style="fill:#ffffff" />
        <path
           class="p"
           d="m 1124.51,395.216 c 1.291,-6.268 35.772,5.9 46.869,31.3 8.472,19.394 24.207,50.348 27.417,52.236 38.867,22.863 77.915,44.325 77.915,44.325 l -11.854,24.893 c 0,0 -82.02,-41.416 -95.13,-52.887 -9.037,-7.907 -21.572,-28.538 -40.6,-58.54 -15.409,-24.296 -7.255,-28.51 -4.617,-41.327 z"
           id="path472"
           inkscape:connector-curvature="0"
           style="fill:#f6538b" />
        <path
           class="s"
           d="m 1405.152,451.251 c -0.1,-6.74 -0.27,-13.435 -0.625,-20.113 q -1.114,-6.108 -1.871,-12.265 a 4.355,4.355 0 0 0 -0.413,0.543 c -3.66,5.857 -33.676,71.014 -42.462,76.871 -8.786,5.857 -55.639,24.159 -55.639,24.159 l 5.124,34.409 c 0,0 65.157,-21.231 73.943,-29.284 7.389,-6.774 18.92,-29.081 22.4,-36 2.12,-12.606 -0.276,-25.631 -0.457,-38.32 z"
           id="path474"
           inkscape:connector-curvature="0"
           style="fill:#f95e01" />
        <path
           class="q"
           d="m 1442.509,398.185 c 0,0 -12.414,5.215 -23.509,10.728 4.159,6.234 6.464,14.426 8.275,20.867 6.237,22.17 9.8,56.18 -11.009,71.372 -3.264,2.382 -7.126,0.925 -9.334,-1.847 l 3.12,123.635 c 2.928,0 36.605,3.661 36.605,3.661 z"
           id="path476"
           inkscape:connector-curvature="0"
           style="fill:#fc8609" />
        <path
           class="s"
           d="m 1512.949,417.2 c 0.834,-4.171 4.785,-12.955 9.624,-12.632 27.069,1.8 28.874,88.425 31.28,100.456 2.406,12.031 5.109,118.258 5.109,118.258 l -26.764,0.846 c 0,0 -7.82,-83.614 -12.632,-116.1 -4.812,-32.486 -7.219,-87.822 -6.617,-90.828 z"
           id="path478"
           inkscape:connector-curvature="0"
           style="fill:#f95e01" />
        <path
           class="o"
           d="m 1273.393,528.5 13.91,3.66 21.963,-5.857 -0.732,19.035 -8.785,7.321 -1.464,9.517 -11.714,-2.2 -10.25,-0.732 -5.121,-12.444 -4.393,-5.857 z"
           id="path480"
           inkscape:connector-curvature="0"
           style="fill:#fcbac3" />
        <path
           class="t"
           d="m 1201.038,395.97 c 3.393,1.885 29.405,11.309 24.5,47.877 -4.905,36.568 -1.686,130.7 -1.686,130.7 l -11.686,-0.754 c 0,0 -13.771,-160.485 -14.9,-162.747 -1.129,-2.262 -10.176,-18.846 -10.176,-18.846 z"
           id="path482"
           inkscape:connector-curvature="0"
           style="fill:#3772ce" />
        <path
           class="n"
           d="m 1167.172,635.871 c -0.957,-3.831 0.238,-7.722 -3.277,-11.5 -1.792,-1.926 -4.344,-3.27 -6.458,-4.811 -2.044,-1.489 -3.957,-2.978 -5.8,-4.564 0.148,0.256 0.278,0.523 0.427,0.779 a 108.217,108.217 0 0 0 11.164,16.015 c 1.212,1.416 2.672,2.698 3.944,4.081 z"
           id="path484"
           inkscape:connector-curvature="0"
           style="fill:#10312f" />
        <path
           class="u"
           d="m 1423.474,336.688 c 0,2.2 -8.785,49.783 20.5,47.587 l 5.125,26.356 25.624,-6.589 0.732,-39.534 c 0,0 10.981,-10.981 5.124,-18.3 -5.857,-7.319 -13.91,-25.624 -13.91,-25.624 l -43.194,-1.464 z"
           id="path486"
           inkscape:connector-curvature="0"
           style="fill:#f4bdbd" />
        <path
           class="v"
           d="m 1460.08,352.062 5.124,4.393 c 0,0 3.661,-13.178 8.785,-10.249 5.124,2.929 6.589,16.106 -5.124,21.231 l 5.124,11.713 10.25,-14.642 c 0,0 15.374,-15.374 8.785,-38.069 l -61.957,-11.239 -13.449,10.512 40.265,1.464 z"
           id="path488"
           inkscape:connector-curvature="0"
           style="fill:#110967" />
        <path
           class="e"
           d="m 1457.151,401.113 20.912,-5.677 14.229,187.238 -49.051,7.326 -0.732,-191.811 z"
           id="path490"
           inkscape:connector-curvature="0"
           style="fill:#ffffff" />
        <path
           class="w"
           d="m 1477.259,395.436 50.127,10.935 3.708,89.915 -1.707,135.439 -43.926,-6.589 z"
           id="path492"
           inkscape:connector-curvature="0"
           style="fill:#ff928e" />
        <path
           class="w"
           d="m 1410.054,622.94 c 2.928,0 36.605,3.661 36.605,3.661 l -4.15,-228.416 c 0,0 -36.6,15.374 -40.266,21.231 -3.666,5.857 -33.676,71.014 -42.462,76.871 -8.786,5.857 -55.639,24.159 -55.639,24.159 l 5.124,34.409 c 0,0 65.158,-21.231 73.943,-29.284 8.785,-8.053 23.427,-38.07 23.427,-38.07 z"
           id="path494"
           inkscape:connector-curvature="0"
           style="fill:#ff928e" />
        <path
           class="o"
           d="m 1537.018,621.005 c 0,0 -13.178,22.7 -6.589,24.16 6.589,1.46 23.428,-1.465 23.428,-5.125 0,-3.66 2.928,-18.3 2.928,-18.3 z"
           id="path496"
           inkscape:connector-curvature="0"
           style="fill:#fcbac3" />
        <path
           class="x"
           d="m 1159.947,386.168 c 0,0 4.632,0.449 10.326,1.42 0.443,0.076 0.894,0.155 1.348,0.237 2.611,0.471 5.617,6.75 8.221,7.438 2.546,0.673 4.965,-1.9 6.634,-3.358 0.174,-0.152 0.415,0.2 0.614,0.3 0.919,0.459 19.49,3.125 22.79,8.735 4.872,8.281 2.559,27.079 4.62,49.5 1.214,13.2 9.274,137.08 9.274,137.08 l -20.2,6.216 -2.794,-41.386 -15.344,3.336 -2.8,43.344 -59.862,-2.963 c 0,0 5.2,-67.468 4.662,-84.69 -0.777,-24.863 0.283,-117.714 0.283,-117.714 z"
           id="path498"
           inkscape:connector-curvature="0"
           style="fill:#275bca" />
        <path
           class="e"
           d="m 1171.555,387.663 c 0,0 10.142,33.27 11.334,82.72 1.192,49.45 2.722,101.47 2.722,101.47 l 15.631,-3.763 c 0,0 -1.076,-90.558 -3.459,-111.41 -2.383,-20.852 -10.693,-64.48 -10.693,-64.48 0,0 -8.776,0.128 -15.535,-4.537 z"
           id="path500"
           inkscape:connector-curvature="0"
           style="fill:#ffffff" />
        <path
           class="t"
           d="m 1124.51,395.216 c 1.291,-6.268 35.772,5.9 46.869,31.3 8.472,19.394 24.207,50.348 27.417,52.236 38.867,22.863 77.915,44.325 77.915,44.325 l -11.854,24.893 c 0,0 -82.02,-41.416 -95.13,-52.887 -9.037,-7.907 -21.572,-28.538 -40.6,-58.54 -15.409,-24.296 -7.255,-28.51 -4.617,-41.327 z"
           id="path502"
           inkscape:connector-curvature="0"
           style="fill:#3772ce" />
        <path
           class="y"
           d="m 1405.152,451.251 c -0.1,-6.74 -0.27,-13.435 -0.625,-20.113 q -1.114,-6.108 -1.871,-12.265 a 4.355,4.355 0 0 0 -0.413,0.543 c -3.66,5.857 -33.676,71.014 -42.462,76.871 -8.786,5.857 -55.639,24.159 -55.639,24.159 l 5.124,34.409 c 0,0 65.157,-21.231 73.943,-29.284 7.389,-6.774 18.92,-29.081 22.4,-36 2.12,-12.606 -0.276,-25.631 -0.457,-38.32 z"
           id="path504"
           style="fill:url(#linearGradient634)"
           inkscape:connector-curvature="0" />
        <path
           class="w"
           d="m 1442.509,398.185 c 0,0 -12.414,5.215 -23.509,10.728 4.159,6.234 6.464,14.426 8.275,20.867 6.237,22.17 9.8,56.18 -11.009,71.372 -3.264,2.382 -7.126,0.925 -9.334,-1.847 l 3.12,123.635 c 2.928,0 36.605,3.661 36.605,3.661 z"
           id="path506"
           inkscape:connector-curvature="0"
           style="fill:#ff928e" />
        <path
           class="y"
           d="m 1512.949,417.2 c 0.834,-4.171 4.785,-12.955 9.624,-12.632 27.069,1.8 28.874,88.425 31.28,100.456 2.406,12.031 5.109,118.258 5.109,118.258 l -26.764,0.846 c 0,0 -7.82,-83.614 -12.632,-116.1 -4.812,-32.486 -7.219,-87.822 -6.617,-90.828 z"
           id="path508"
           style="fill:url(#linearGradient636)"
           inkscape:connector-curvature="0" />
        <path
           class="v"
           d="m 1493.024,326.439 -8.784,-6.3 c -1.8,-3.38 -0.786,-3.952 -1.311,-13.41 -0.642,-11.561 -11.883,-9.313 -19.269,-8.671 -7.386,0.642 -10.6,-1.927 -27.3,-4.175 -16.7,-2.248 -8.35,8.671 -19.269,11.883 -10.919,3.212 -13.167,6.1 -16.7,14.13 -3.533,8.03 4.818,10.919 14.131,15.094 9.313,4.175 16.057,-1.605 23.443,0.321 7.386,1.926 9.314,-2.569 11.562,-3.211 2.248,-0.642 9.927,12.9 9.927,12.9 l 0.623,7.056 5.124,4.393 c 0,0 2.508,-9.029 6.279,-10.478 0.907,0.181 1.891,0.337 2.9,0.48 4.8,3.361 5.891,15.989 -5.517,20.98 l 5.124,11.713 4.438,-6.339 a 3.365,3.365 0 0 0 1.285,-1.836 l 4.527,-6.467 c 0,0 15.376,-15.368 8.787,-38.063 z"
           id="path510"
           inkscape:connector-curvature="0"
           style="fill:#110967" />
      </g>
      <path
         class="z"
         d="m 1084.378,376.548 a 8.533,8.533 0 0 1 -1.616,0.156 h -4.227 c -0.138,0 -0.275,0 -0.411,-0.01 a 8.5,8.5 0 0 1 -1.2,-0.146 h -0.024 l -0.024,-0.005 v 0.606 a 3.777,3.777 0 1 0 7.553,0 v -0.606 z"
         id="path514"
         inkscape:connector-curvature="0"
         style="fill:#0f3872" />
      <path
         class="d"
         d="m 1070.162,369.792 a 8.584,8.584 0 0 0 5.758,6.5 8.26,8.26 0 0 0 0.952,0.25 l 0.024,0.005 h 0.024 a 8.5,8.5 0 0 0 1.2,0.146 c 0.136,0.007 0.273,0.01 0.411,0.01 h 4.227 a 8.533,8.533 0 0 0 1.616,-0.156 l 0.047,-0.009 v 0 a 8.561,8.561 0 0 0 6.867,-8.365 V 363.5 a 25.139,25.139 0 0 1 -7.9,4.935 c -5.075,2.06 -10.062,2.465 -13.226,1.357 z"
         id="path516"
         inkscape:connector-curvature="0"
         style="fill:#007aff" />
      <path
         class="z"
         d="m 1084.378,376.548 v 0 l 0.047,-0.009 v 0 z"
         id="path518"
         inkscape:connector-curvature="0"
         style="fill:#0f3872" />
      <path
         class="z"
         d="m 1076.92,376.548 v 0 h -0.024 z"
         id="path520"
         inkscape:connector-curvature="0"
         style="fill:#0f3872" />
      <path
         class="z"
         d="m 1078.535,376.7 c -0.138,0 -0.275,0 -0.411,-0.01 0.136,0.007 0.273,0.01 0.411,0.01 z"
         id="path522"
         inkscape:connector-curvature="0"
         style="fill:#0f3872" />
      <path
         class="z"
         d="m 1084.378,376.548 v 0 a 8.533,8.533 0 0 1 -1.616,0.156 v 0 a 8.533,8.533 0 0 0 1.616,-0.156 z"
         id="path524"
         inkscape:connector-curvature="0"
         style="fill:#0f3872" />
      <path
         class="z"
         d="m 1078.124,376.694 a 8.5,8.5 0 0 1 -1.2,-0.146 v 0 a 8.5,8.5 0 0 0 1.2,0.146 z"
         id="path526"
         inkscape:connector-curvature="0"
         style="fill:#0f3872" />
      <path
         class="aa"
         d="m 1087.89,340.424 a 48.371,48.371 0 0 0 12.809,-31.959 25.594,25.594 0 1 0 -30.694,39.182 v 5.075 a 48.635,48.635 0 0 0 17.885,-12.298 z m -13.065,-20.72 c -1.8,5.332 -5.623,8.857 -8.531,7.873 -2.908,-0.984 -3.8,-6.1 -2,-11.435 1.8,-5.335 5.623,-8.857 8.531,-7.873 2.908,0.984 3.803,6.103 2,11.431 z"
         id="path528"
         inkscape:connector-curvature="0"
         style="fill:#b9ddff" />
      <path
         class="ab"
         d="m 1072.824,308.269 c -2.908,-0.984 -6.727,2.541 -8.531,7.873 -1.804,5.332 -0.908,10.452 2,11.435 2.908,0.983 6.728,-2.541 8.531,-7.873 1.803,-5.332 0.909,-10.451 -2,-11.435 z"
         id="path530"
         inkscape:connector-curvature="0"
         style="fill:#f7f7f7" />
      <path
         class="ac"
         d="m 1100.7,308.465 a 48.6,48.6 0 0 1 -30.694,44.257 v 7.678 h 21.287 v -12.753 a 25.6,25.6 0 0 0 9.407,-39.182 z"
         id="path532"
         inkscape:connector-curvature="0"
         style="fill:#4baafc" />
      <path
         class="d"
         d="m 1091.292,360.4 h -21.287 v 7.778 a 8.476,8.476 0 0 0 0.157,1.618 c 3.164,1.109 8.151,0.7 13.228,-1.353 a 25.139,25.139 0 0 0 7.9,-4.935 V 360.4 Z"
         id="path534"
         inkscape:connector-curvature="0"
         style="fill:#007aff" />
      <path
         class="ad"
         d="m 1055.311,355.578 c -0.79,-0.6 -1.568,-1.231 -2.313,-1.884 l 4.6,-5.249 c 0.617,0.542 1.262,1.067 1.917,1.561 z m 52.09,-2.919 -4.8,-5.07 c 0.6,-0.564 1.178,-1.158 1.731,-1.764 l 5.159,4.7 c -0.668,0.736 -1.371,1.452 -2.091,2.134 z m -62.1,-8.037 c -0.522,-0.84 -1.02,-1.711 -1.479,-2.589 l 6.184,-3.239 c 0.381,0.726 0.793,1.447 1.225,2.142 z m 70.827,-3.967 -6.3,-3 c 0.352,-0.741 0.681,-1.5 0.977,-2.268 l 6.51,2.522 c -0.361,0.926 -0.759,1.85 -1.186,2.746 z m -76.205,-9.871 c -0.182,-0.972 -0.33,-1.966 -0.439,-2.952 l 6.938,-0.772 c 0.091,0.816 0.213,1.637 0.364,2.441 z m 80,-4.486 -6.963,-0.508 c 0.06,-0.816 0.09,-1.648 0.09,-2.471 v -0.086 h 6.981 v 0.086 c 0,0.992 -0.039,1.994 -0.111,2.981 z m -73.148,-9.081 -6.866,-1.266 c 0.18,-0.974 0.4,-1.955 0.65,-2.914 l 6.753,1.771 c -0.212,0.792 -0.392,1.604 -0.54,2.409 z m 64.812,-3.709 c -0.24,-0.783 -0.512,-1.567 -0.81,-2.329 l 6.5,-2.538 c 0.36,0.923 0.691,1.872 0.981,2.821 z m -60.394,-7.738 -5.938,-3.672 c 0.52,-0.841 1.08,-1.676 1.663,-2.48 l 5.651,4.1 c -0.486,0.666 -0.949,1.356 -1.379,2.052 z m 54.691,-3.13 c -0.509,-0.645 -1.047,-1.278 -1.6,-1.882 l 5.148,-4.716 c 0.668,0.729 1.318,1.494 1.933,2.273 z m -46.425,-5.96 -4.22,-5.562 c 0.789,-0.6 1.61,-1.175 2.441,-1.714 l 3.8,5.857 c -0.692,0.447 -1.371,0.924 -2.024,1.419 z m 37.181,-2.132 c -0.706,-0.418 -1.436,-0.815 -2.17,-1.179 l 3.1,-6.254 c 0.888,0.441 1.771,0.921 2.625,1.427 z m -26.207,-3.361 -1.919,-6.713 c 0.954,-0.273 1.929,-0.513 2.9,-0.713 l 1.414,6.837 c -0.805,0.165 -1.611,0.364 -2.398,0.589 z m 14.677,-0.837 c -0.808,-0.133 -1.632,-0.238 -2.449,-0.311 l 0.624,-6.954 c 0.987,0.089 1.983,0.215 2.96,0.376 z"
         id="path536"
         inkscape:connector-curvature="0"
         style="fill:#ec1c24" />
      <g
         class="ae"
         id="g592"
         style="isolation:isolate;mix-blend-mode:multiply">
        <circle
           class="af"
           cx="67.608002"
           cy="67.608002"
           r="67.608002"
           transform="rotate(-45,1467.2018,-1559.8769)"
           id="circle538"
           style="opacity:0;fill:#9b9fa3" />
        <circle
           class="ag"
           cx="67.608002"
           cy="67.608002"
           r="67.608002"
           transform="rotate(-45,1467.0078,-1559.5825)"
           id="circle540"
           style="opacity:0.03800001;fill:#9b9fa3" />
        <circle
           class="ah"
           cx="67.608002"
           cy="67.608002"
           r="67.608002"
           transform="rotate(-45,1466.8149,-1559.2876)"
           id="circle542"
           style="opacity:0.07699998;fill:#9b9fa3" />
        <circle
           class="ai"
           cx="67.608002"
           cy="67.608002"
           r="67.608002"
           transform="rotate(-45,1466.6226,-1558.994)"
           id="circle544"
           style="opacity:0.11499999;fill:#9b9fa3" />
        <circle
           class="aj"
           cx="67.608002"
           cy="67.608002"
           r="67.608002"
           transform="rotate(-45,1466.4285,-1558.6996)"
           id="circle546"
           style="opacity:0.15400002;fill:#9b9fa3" />
        <circle
           class="ak"
           cx="67.608002"
           cy="67.608002"
           r="67.608002"
           transform="rotate(-45,1466.2356,-1558.4047)"
           id="circle548"
           style="opacity:0.19200003;fill:#9b9fa3" />
        <circle
           class="al"
           cx="67.608002"
           cy="67.608002"
           r="67.608002"
           transform="rotate(-45,1466.0428,-1558.1098)"
           id="circle550"
           style="opacity:0.231;fill:#9b9fa3" />
        <circle
           class="am"
           cx="67.608002"
           cy="67.608002"
           r="67.608002"
           transform="translate(1558.884,512.631)"
           id="circle552"
           style="opacity:0.269;fill:#9b9fa3" />
        <circle
           class="an"
           cx="67.608002"
           cy="67.608002"
           r="67.608002"
           transform="translate(1558.619,512.581)"
           id="circle554"
           style="opacity:0.30800003;fill:#9b9fa3" />
        <circle
           class="ao"
           cx="67.608002"
           cy="67.608002"
           r="67.608002"
           transform="translate(1558.354,512.53)"
           id="circle556"
           style="opacity:0.34599998;fill:#9b9fa3" />
        <circle
           class="ap"
           cx="67.608002"
           cy="67.608002"
           r="67.608002"
           transform="translate(1558.089,512.48)"
           id="circle558"
           style="opacity:0.38500001;fill:#9b9fa3" />
        <circle
           class="aq"
           cx="67.608002"
           cy="67.608002"
           r="67.608002"
           transform="translate(1557.825,512.43)"
           id="circle560"
           style="opacity:0.42300002;fill:#9b9fa3" />
        <circle
           class="ar"
           cx="67.608002"
           cy="67.608002"
           r="67.608002"
           transform="translate(1557.56,512.38)"
           id="circle562"
           style="opacity:0.46200005;fill:#9b9fa3" />
        <circle
           class="as"
           cx="67.608002"
           cy="67.608002"
           r="67.608002"
           transform="translate(1557.295,512.329)"
           id="circle564"
           style="opacity:0.5;fill:#9b9fa3" />
        <circle
           class="at"
           cx="67.608002"
           cy="67.608002"
           r="67.608002"
           transform="rotate(-45,1464.4985,-1555.7542)"
           id="circle566"
           style="opacity:0.53800001;fill:#9b9fa3" />
        <circle
           class="au"
           cx="67.608002"
           cy="67.608002"
           r="67.608002"
           transform="rotate(-45,1464.3062,-1555.4605)"
           id="circle568"
           style="opacity:0.57700004;fill:#9b9fa3" />
        <circle
           class="av"
           cx="67.608002"
           cy="67.608002"
           r="67.608002"
           transform="rotate(-45,1464.1121,-1555.1661)"
           id="circle570"
           style="opacity:0.61499999;fill:#9b9fa3" />
        <circle
           class="aw"
           cx="67.608002"
           cy="67.608002"
           r="67.608002"
           transform="rotate(-45,1463.9193,-1554.8712)"
           id="circle572"
           style="opacity:0.65399996;fill:#9b9fa3" />
        <circle
           class="ax"
           cx="67.608002"
           cy="67.608002"
           r="67.608002"
           transform="rotate(-45,1463.7264,-1554.5763)"
           id="circle574"
           style="opacity:0.69199997;fill:#9b9fa3" />
        <circle
           class="ay"
           cx="67.608002"
           cy="67.608002"
           r="67.608002"
           transform="rotate(-45,1463.534,-1554.2827)"
           id="circle576"
           style="opacity:0.731;fill:#9b9fa3" />
        <circle
           class="az"
           cx="67.608002"
           cy="67.608002"
           r="67.608002"
           transform="rotate(-45,1463.34,-1553.9883)"
           id="circle578"
           style="opacity:0.769;fill:#9b9fa3" />
        <circle
           class="ba"
           cx="67.608002"
           cy="67.608002"
           r="67.608002"
           transform="rotate(-45,1463.1471,-1553.6934)"
           id="circle580"
           style="opacity:0.80800003;fill:#9b9fa3" />
        <circle
           class="bb"
           cx="67.608002"
           cy="67.608002"
           r="67.608002"
           transform="rotate(-45,1462.9543,-1553.3985)"
           id="circle582"
           style="opacity:0.84600004;fill:#9b9fa3" />
        <circle
           class="bc"
           cx="67.608002"
           cy="67.608002"
           r="67.608002"
           transform="rotate(-45,1462.7614,-1553.1036)"
           id="circle584"
           style="opacity:0.88500001;fill:#9b9fa3" />
        <circle
           class="bd"
           cx="67.608002"
           cy="67.608002"
           r="67.608002"
           transform="rotate(-45,1462.5679,-1552.8104)"
           id="circle586"
           style="opacity:0.92299996;fill:#9b9fa3" />
        <circle
           class="be"
           cx="67.608002"
           cy="67.608002"
           r="67.608002"
           transform="rotate(-45,1462.375,-1552.5156)"
           id="circle588"
           style="opacity:0.96199999;fill:#9b9fa3" />
        <circle
           class="bf"
           cx="67.608002"
           cy="67.608002"
           r="67.608002"
           transform="rotate(-45,1462.1821,-1552.2207)"
           id="circle590"
           style="fill:#9b9fa3" />
      </g>
      <circle
         class="aa"
         cx="67.608002"
         cy="67.608002"
         r="67.608002"
         transform="rotate(-45,1462.1821,-1552.2207)"
         id="circle594"
         style="fill:#b9ddff" />
      <circle
         class="bg"
         cx="55.088001"
         cy="55.088001"
         r="55.088001"
         transform="matrix(0.999,-0.041,0.041,0.999,1564.169,526.492)"
         id="circle596"
         style="fill:#7ab0f6" />
      <circle
         class="d"
         cx="42.568001"
         cy="42.568001"
         r="42.568001"
         transform="rotate(-45,1479.8881,-1594.9667)"
         id="circle598"
         style="fill:#007aff" />
      <circle
         class="e"
         cx="30.048"
         cy="30.048"
         r="30.048"
         transform="rotate(-45,1488.7411,-1616.3398)"
         id="circle600"
         style="fill:#ffffff" />
      <circle
         class="d"
         cx="17.528"
         cy="17.528"
         r="17.528"
         transform="matrix(0.807,-0.59,0.59,0.807,1596.967,575.476)"
         id="circle602"
         style="fill:#007aff" />
      <path
         class="bg"
         d="m 1626.469,579.281 a 5.008,5.008 0 1 1 -5.011,-5.005 5.008,5.008 0 0 1 5.011,5.005 z"
         id="path604"
         inkscape:connector-curvature="0"
         style="fill:#7ab0f6" />
      <g
         class="bh"
         id="g610"
         style="opacity:0.33000004">
        <path
           class="bi"
           d="m 1683.547,573.8 -4.946,5.447 4.953,5.441 -17.693,0.011 -4.953,-5.441 4.946,-5.447 z"
           id="path606"
           inkscape:connector-curvature="0"
           style="stroke:#000000;stroke-width:0.60299999px;stroke-miterlimit:10" />
        <path
           class="bj"
           d="m 1621.461,579.284 58.792,-0.037 z"
           id="path608"
           inkscape:connector-curvature="0"
           style="stroke:#000000;stroke-width:1.20500004px;stroke-linecap:round;stroke-miterlimit:10" />
      </g>
      <path
         class="ad"
         d="m 1661.485,531.505 0.354,7.349 7.349,0.345 -12.5,12.519 -7.349,-0.345 -0.354,-7.349 z"
         id="path612"
         inkscape:connector-curvature="0"
         style="fill:#ec1c24" />
      <path
         class="e"
         d="m 1621.461,580.427 a 1.143,1.143 0 0 1 -0.809,-1.951 l 41.546,-41.6 a 1.1433919,1.1433919 0 0 1 1.618,1.616 l -41.546,41.6 a 1.143,1.143 0 0 1 -0.809,0.335 z"
         id="path614"
         inkscape:connector-curvature="0"
         style="fill:#ffffff" />
    </g>
  </g>
</svg>
